# xmcd
# 
# Track frame offsets:
#     150
#     18295
#     34609
#     59716
#     77134
#     96595
#     112832
#     130604
#     151851
#     174647
# 
# Disc length: 2636
# 
# Revision: 0
# Processed by: cddbd v1.5.2PL0 Copyright (c) Steve Scherf et al.
# Submitted via: fre:ac v1.0.31
# 
DISCID=770a4a0a
DTITLE=Ball and Chain - Surrender
DYEAR=0
DGENRE=Country
TTITLE0=Infinite Blue
TTITLE1=Surrender
TTITLE2=Last Cowboy
TTITLE3=Business
TTITLE4=Daydreamin'
TTITLE5=Johnny
TTITLE6=Sister Why
TTITLE7=I'm All Alone
TTITLE8=Guilty as Sin
TTITLE9=Festival Farewell
EXTD=
EXTT0=
EXTT1=
EXTT2=
EXTT3=
EXTT4=
EXTT5=
EXTT6=
EXTT7=
EXTT8=
EXTT9=
PLAYORDER=
